<svg width="38" height="38" viewBox="0 0 38 38" fill="none" xmlns="http://www.w3.org/2000/svg">
<circle cx="19" cy="19" r="19" fill="#644DBD"/>
<g clip-path="url(#clip0_45_1121)">
<path d="M18.5488 10.0026C17.1043 10.0201 13.9988 10.2574 12.2618 11.851C10.9697 13.1312 10.5186 15.0241 10.4657 17.3646C10.4218 19.6967 10.369 24.0764 14.5905 25.2689V27.0852C14.5905 27.0852 14.5641 27.8119 15.0445 27.961C15.6362 28.1483 15.9731 27.5892 16.5356 26.9884L17.5847 25.8021C20.4731 26.0423 22.6855 25.4888 22.9403 25.4067C23.5264 25.2194 26.8277 24.7975 27.3671 20.4173C27.9206 15.8937 27.0977 13.0435 25.6121 11.7542H25.6031C25.1548 11.3414 23.3531 10.0285 19.3279 10.0139C19.3279 10.0139 19.0292 9.99362 18.5488 10.0021V10.0026ZM18.5983 11.2744C19.0084 11.2716 19.2576 11.2891 19.2576 11.2891C22.6646 11.2981 24.2908 12.3235 24.6745 12.6689C25.9255 13.741 26.5701 16.3105 26.0981 20.0871C25.6498 23.749 22.9723 23.9807 22.4768 24.1388C22.2658 24.2063 20.3173 24.6867 17.8626 24.5286C17.8626 24.5286 16.0345 26.7347 15.463 27.3029C15.3724 27.4024 15.2666 27.4317 15.1991 27.4171C15.1024 27.3934 15.0731 27.2736 15.0788 27.1094L15.0962 24.0949C11.5159 23.1049 11.7268 19.3694 11.7651 17.4181C11.809 15.4667 12.1751 13.8704 13.2653 12.7892C14.7328 11.4623 17.3698 11.2834 18.5972 11.2744H18.5983ZM18.8683 13.2252C18.8389 13.2249 18.8096 13.2304 18.7823 13.2415C18.755 13.2525 18.7301 13.2689 18.7092 13.2896C18.6882 13.3103 18.6715 13.3349 18.6601 13.3621C18.6487 13.3893 18.6428 13.4185 18.6428 13.4479C18.6428 13.5739 18.7451 13.6735 18.8683 13.6735C19.4261 13.6629 19.9804 13.7628 20.4993 13.9675C21.0182 14.1721 21.4915 14.4775 21.8918 14.866C22.7091 15.6597 23.1073 16.7262 23.1225 18.1206C23.1225 18.2438 23.2221 18.3462 23.3481 18.3462V18.3372C23.4075 18.3373 23.4645 18.314 23.5068 18.2723C23.549 18.2305 23.5731 18.1738 23.5736 18.1144C23.601 17.4581 23.4945 16.803 23.2608 16.1891C23.0271 15.5751 22.671 15.0151 22.2141 14.5431C21.3236 13.6729 20.1953 13.2246 18.8683 13.2246V13.2252ZM15.9034 13.741C15.7442 13.7177 15.5818 13.7497 15.4433 13.8316H15.4315C15.1099 14.0201 14.8201 14.2583 14.5731 14.5375C14.3678 14.7749 14.2564 15.0151 14.2271 15.2462C14.2097 15.3841 14.2215 15.5219 14.2626 15.6535L14.2772 15.6625C14.5084 16.342 14.8105 16.9956 15.1795 17.611C15.6548 18.4755 16.2397 19.2751 16.9198 19.9898L16.9401 20.0191L16.9721 20.0427L16.9924 20.0663L17.016 20.0866C17.7333 20.7686 18.5348 21.3563 19.401 21.8354C20.391 22.3742 20.9918 22.6291 21.3523 22.7348V22.7404C21.4581 22.7725 21.5543 22.7871 21.651 22.7871C21.9583 22.7646 22.2492 22.6398 22.4773 22.4327C22.7552 22.1856 22.9908 21.8947 23.1748 21.5716V21.5659C23.3475 21.2408 23.289 20.9331 23.0398 20.725C22.5408 20.2888 22.0011 19.9013 21.4283 19.5679C21.0446 19.3598 20.6548 19.4858 20.4968 19.6967L20.1598 20.1214C19.9871 20.3324 19.6733 20.3031 19.6733 20.3031L19.6643 20.3087C17.3237 19.7108 16.6993 17.341 16.6993 17.341C16.6993 17.341 16.6701 17.0187 16.8866 16.8544L17.3085 16.5147C17.5105 16.3504 17.6511 15.9612 17.4345 15.577C17.1034 15.0033 16.7168 14.4636 16.2803 13.9654C16.1848 13.848 16.0509 13.7681 15.9023 13.7399L15.9034 13.741ZM19.2576 14.4092C18.9589 14.4092 18.9589 14.8604 19.2604 14.8604C19.6318 14.8664 19.9984 14.9456 20.3392 15.0933C20.68 15.2411 20.9883 15.4546 21.2466 15.7216C21.4822 15.9814 21.6632 16.286 21.779 16.6171C21.8947 16.9482 21.9428 17.2992 21.9205 17.6492C21.9215 17.7085 21.9457 17.765 21.9878 17.8066C22.03 17.8482 22.0868 17.8717 22.146 17.872L22.155 17.8838C22.2147 17.8834 22.2718 17.8595 22.314 17.8173C22.3562 17.775 22.3801 17.7179 22.3806 17.6582C22.4008 16.7644 22.123 16.0146 21.5779 15.4139C21.03 14.8131 20.2656 14.4762 19.2896 14.4092H19.2576ZM19.6271 15.622C19.3195 15.613 19.3076 16.0731 19.6125 16.0821C20.3539 16.1204 20.7139 16.495 20.7611 17.2656C20.7622 17.3241 20.7861 17.3799 20.8277 17.421C20.8693 17.4621 20.9254 17.4853 20.9839 17.4856H20.9929C21.023 17.4843 21.0525 17.477 21.0797 17.4642C21.107 17.4514 21.1314 17.4332 21.1515 17.4109C21.1717 17.3885 21.1872 17.3624 21.1971 17.3339C21.2071 17.3055 21.2113 17.2754 21.2095 17.2454C21.1566 16.2407 20.6087 15.6749 19.6361 15.6226H19.6271V15.622Z" fill="white"/>
</g>
<defs>
<clipPath id="clip0_45_1121">
<rect width="18" height="18" fill="white" transform="translate(10 10)"/>
</clipPath>
</defs>
</svg>
